<?xml version="1.0" standalone="no"?><!DOCTYPE svg PUBLIC "-//W3C//DTD SVG 1.1//EN" "http://www.w3.org/Graphics/SVG/1.1/DTD/svg11.dtd"><svg t="1501845310028" class="icon" style="" viewBox="0 0 1063 1024" version="1.1" xmlns="http://www.w3.org/2000/svg" p-id="2933" xmlns:xlink="http://www.w3.org/1999/xlink" width="207.6171875" height="200"><defs><style type="text/css"></style></defs><path d="M523.008 0h6.212267c23.944533 0.6656 47.9232 2.133333 71.5776 6.0416 63.232 9.915733 124.484267 33.143467 177.783466 68.693333 34.065067 22.545067 65.0752 49.476267 93.320534 78.916267 50.090667 52.650667 91.3408 113.8688 120.32 180.565333 29.986133 69.137067 46.4384 145.169067 40.5504 220.672-2.389333 34.389333-9.949867 68.386133-22.647467 100.4544-12.270933 32.7168-28.996267 63.658667-39.543467 97.041067-10.8032 33.160533-16.913067 67.857067-17.851733 102.724267-0.648533 17.134933-0.375467 34.9184-7.082667 51.029333-4.608 11.5712-14.353067 20.445867-25.4976 25.6512-15.018667 7.2192-31.5904 10.103467-47.7184 13.738667-102.570667 22.510933-205.2608 44.561067-308.189866 65.399466-16.657067 3.191467-33.6384 3.754667-50.551467 4.130134-44.7488 1.979733-89.821867-1.467733-133.597867-11.1104-61.576533-13.4656-120.183467-40.584533-170.018133-79.240534-56.32-43.383467-101.666133-99.601067-137.9328-160.426666C39.901867 710.929067 16.2304 651.946667 6.331733 590.250667c-8.891733-54.203733-6.9632-110.011733 4.6592-163.652267 13.243733-62.071467 38.877867-121.002667 71.389867-175.3088 25.736533-43.690667 58.282667-83.336533 96-117.1968C271.991467 49.629867 396.9536 1.109333 523.008 0m-41.710933 37.819733c-82.3808 5.768533-162.8672 33.450667-232.157867 78.216534-54.9888 35.140267-102.314667 81.646933-140.117333 134.741333-30.242133 41.915733-54.510933 88.507733-68.795734 138.2912-14.609067 50.158933-18.3296 103.406933-11.093333 155.118933 5.341867 39.799467 17.1008 78.5408 32.836267 115.438934 21.213867 49.544533 49.3568 96.443733 85.435733 136.635733 26.7776 29.8496 57.821867 55.927467 92.2112 76.612267 58.3168 35.464533 125.457067 54.869333 193.1776 61.047466 72.584533 7.133867 146.909867-3.84 214.186667-32.1024 61.6448-25.668267 117.248-65.450667 162.082133-114.8928 45.482667-50.0736 79.854933-110.097067 100.369067-174.557866 23.296-73.966933 28.945067-153.7024 14.6432-230.024534-13.533867-72.055467-44.919467-140.9024-91.648-197.495466-54.801067-67.157333-131.669333-116.2752-216.1664-136.123734-44.032-10.786133-89.787733-14.148267-134.9632-10.9056z" fill="#FAD700" p-id="2934"></path><path d="M504.1664 75.707733c15.598933-10.052267 35.089067-9.437867 52.8384-7.697066 25.7024 2.5088 51.182933 7.7312 75.6224 16.128 12.936533 4.4032 24.832 12.3392 33.058133 23.330133 11.537067 14.882133 15.7184 35.208533 10.683734 53.384533-3.003733 12.100267-10.5472 22.254933-17.015467 32.648534-46.0288 73.437867-94.481067 145.322667-142.574933 217.3952-4.8128 7.918933-14.0288 11.025067-22.408534 13.568-3.959467-13.021867-4.573867-26.760533-5.802666-40.2432-4.864-67.669333-5.393067-135.543467-6.4512-203.3152 0.324267-20.497067-0.699733-41.028267 0.699733-61.4912 1.314133-16.384 6.843733-34.304 21.3504-43.707734zM416.426667 77.550933c14.404267-4.113067 30.839467 2.525867 38.161066 15.633067 6.946133 10.8544 6.2976 24.1664 7.1168 36.522667 5.2224 87.005867 8.516267 174.097067 12.288 261.1712 0.341333 13.1584-6.912 25.7024-17.595733 33.0752-2.645333 1.706667-5.956267 3.7376-9.181867 2.2528-5.512533-2.4064-9.966933-6.826667-13.431466-11.656534-17.339733-26.7264-33.399467-54.698667-55.552-77.841066 11.502933 22.254933 22.9888 44.526933 33.877333 67.089066 3.2256 7.441067 8.021333 14.574933 8.055467 22.971734 0 6.058667-0.5632 12.0832-0.324267 18.141866-8.465067 0.170667-16.861867 2.133333-25.326933 1.2288-4.9664-0.9216-9.1136-3.959467-13.550934-6.126933-74.530133-39.168-148.411733-79.5136-222.634666-119.2448-11.229867-5.632-22.596267-14.250667-25.258667-27.255467-3.396267-16.145067 5.888-31.010133 13.824-44.253866 22.869333-37.870933 58.6752-66.286933 97.6896-86.2208 13.329067-5.137067 28.8768 1.621333 36.983467 12.7488 17.288533 20.804267 31.709867 43.758933 47.2576 65.8432l2.594133-2.935467c-9.301333-21.0944-18.3296-42.2912-27.323733-63.505067-4.164267-9.472-7.953067-19.712-6.468267-30.225066 1.0752-10.5472 8.1408-19.780267 17.544533-24.439467 32.580267-16.810667 65.757867-33.245867 101.256534-42.973867zM688.964267 178.449067c7.236267-9.693867 15.428267-20.462933 27.835733-23.364267 11.7248-2.1504 22.510933 4.898133 31.4368 11.656533 33.809067 27.374933 64.136533 58.811733 92.091733 92.091734 9.949867 11.1616 17.220267 24.405333 23.415467 37.922133 6.434133 14.8992 10.666667 31.931733 5.956267 47.940267-3.754667 13.1072-14.148267 23.364267-26.0608 29.422933-9.796267 5.290667-20.855467 7.2192-31.453867 10.205867-81.681067 21.077333-162.798933 44.1856-244.3264 65.8432-7.7312 1.8944-15.36 4.881067-23.432533 4.898133-8.430933-0.119467-16.725333-1.757867-25.122134-2.440533 2.3552-12.4928 1.024-26.4192 8.6528-37.3248 52.957867-79.428267 106.513067-158.464 161.006934-236.8512zM105.6256 349.661867c8.891733-8.874667 21.981867-12.817067 34.304-13.1072 6.8608-0.597333 12.629333 3.584 18.517333 6.365866 76.270933 36.7104 151.108267 76.253867 226.218667 115.2512 10.5472 5.290667 19.729067 12.8 29.201067 19.746134-2.082133 3.054933-4.1984 6.109867-6.280534 9.1648-44.578133 5.2736-89.207467 10.120533-133.768533 15.496533 45.346133 3.754667 90.6752 7.765333 136.021333 11.605333-11.025067 15.2064-21.8112 30.583467-32.8192 45.789867 19.950933-7.1168 39.816533-14.506667 59.733334-21.7088-5.461333 32.853333-10.5472 65.774933-16.6912 98.5088-13.4144 69.12-27.8528 138.018133-40.704 207.240533-1.928533 10.530133-4.693333 21.794133-12.8 29.3888-6.638933 6.365867-16.4864 8.055467-25.326934 6.673067-32.375467-5.290667-64.221867-16.776533-90.658133-36.539733-18.568533-13.858133-34.321067-31.488-46.045867-51.473067-9.540267-12.458667-6.161067-30.3616 2.4576-42.3424 19.780267-26.146133 42.257067-50.193067 60.637867-77.397333-21.248 18.449067-41.984 37.5296-63.778133 55.3472-10.205867 7.9872-23.125333 14.916267-36.488534 11.963733-13.312-3.106133-23.313067-13.4144-31.658666-23.637333-33.8432-39.8848-53.1456-90.794667-58.385067-142.5408-1.143467-10.308267 5.614933-19.336533 12.1344-26.589867 6.929067-7.901867 17.408-10.564267 26.897067-14.08 21.930667-7.338667 44.629333-11.9808 66.884266-18.176-24.644267 0.085333-49.2544-1.006933-73.8816 0.1536-9.0624 0.375467-19.490133-0.529067-26.077866-7.5264-7.389867-7.765333-7.8848-19.080533-9.3184-29.115733-5.614933-44.765867 5.717333-91.511467 31.675733-128.4608zM818.346667 402.0736c12.117333-2.321067 25.2928-2.8672 36.676266 2.594133 11.3152 5.358933 18.8928 16.2304 23.517867 27.528534 8.413867 20.445867 10.871467 42.666667 13.175467 64.477866-1.024 29.8496-3.106133 60.2112-12.731734 88.7296-6.314667 18.619733-16.469333 36.027733-30.1056 50.244267-6.3488 6.7072-13.636267 13.550933-23.04 15.274667-7.031467 1.450667-14.1312-0.938667-20.343466-4.130134-86.152533-42.461867-172.561067-84.411733-258.423467-127.470933-9.762133-4.317867-19.268267-11.9808-22.033067-22.6816 2.798933-11.0592 11.793067-20.804267 22.801067-24.029867 89.838933-24.763733 179.677867-49.664 270.506667-70.536533zM493.9264 526.3872c11.639467-3.498667 24.490667-1.245867 35.037867 4.539733 81.032533 42.8032 162.6624 84.514133 242.432 129.655467 13.806933 8.260267 27.4432 18.2272 35.601066 32.443733 5.888 10.222933 7.7824 22.6816 4.949334 34.167467-3.566933 15.650133-12.868267 29.252267-22.9376 41.454933-23.671467 27.972267-51.268267 52.2752-79.240534 75.8272-15.018667 13.568-34.2016 23.296-54.510933 25.105067-19.234133 1.826133-38.570667-7.1168-50.551467-22.084267-9.437867-10.615467-13.448533-24.439467-18.432-37.410133-32.136533-85.4528-64.4608-170.837333-96.9728-256.1536-2.4064-6.229333-4.369067-12.970667-3.072-19.677867 1.143467-3.652267 4.096-6.621867 7.697067-7.867733zM445.047467 560.708267c1.553067-7.6288 7.458133-13.124267 11.707733-19.319467 6.980267 4.5568 17.1008 6.587733 20.411733 15.121067 30.139733 78.421333 60.6208 156.740267 88.900267 235.861333 3.9424 11.281067 8.3968 22.408533 11.963733 33.826133 3.925333 13.056 4.471467 28.347733-3.396266 40.0896-8.3968 12.817067-22.903467 19.968-37.0176 24.644267-14.421333 3.874133-29.3888 5.1712-44.202667 6.485333-17.698133 1.160533-35.498667 2.304-53.213867 0.768-11.758933-0.5632-22.357333-6.570667-32.034133-12.782933-8.362667-5.307733-14.660267-13.892267-16.315733-23.7568-2.116267-14.148267 1.058133-28.3136 3.6864-42.154667 16.213333-86.3232 32.768-172.561067 49.5104-258.781866z" fill="#FF3400" p-id="2935"></path></svg>