<?xml version="1.0" standalone="no"?><!DOCTYPE svg PUBLIC "-//W3C//DTD SVG 1.1//EN" "http://www.w3.org/Graphics/SVG/1.1/DTD/svg11.dtd"><svg t="1502222883134" class="icon" style="" viewBox="0 0 1024 1024" version="1.1" xmlns="http://www.w3.org/2000/svg" p-id="1216" xmlns:xlink="http://www.w3.org/1999/xlink" width="200" height="200"><defs><style type="text/css"></style></defs><path d="M293.28 739.776c-4.448 1.216-9.28 5.056-9.088 11.808 0.48 16.224 45.088 24.576 44.48 3.616-0.32-10.4-25.536-18.144-35.392-15.424zM556.48 774.272c-22.592-14.112-40-33.728-47.2-60.8-1.376-5.12-0.032-13.376-5.44-18.144-5.728-5.056-18.816-2.432-20.864 5.44-3.168 12.192 7.232 31.232 9.984 37.216 10.688 23.04 24.992 39.04 42.656 51.712 8.64 6.208 18.72 15.008 33.568 14.528 19.168-13.12-3.68-24.32-12.704-29.952zM598.208 791.52c-6.528 1.92-8.544 5.024-9.088 9.088-2.912 21.856 44.384 19.808 44.48 1.824 0.064-15.072-25.76-13.728-35.392-10.88zM870.4 0l-716.8 0c-84.832 0-153.6 68.768-153.6 153.6l0 716.8c0 84.832 68.768 153.6 153.6 153.6l716.8 0c84.832 0 153.6-68.768 153.6-153.6l0-716.8c0-84.832-68.768-153.6-153.6-153.6zM718.016 799.68c-23.168 26.016-53.088 43.072-96.192 47.2l-16.32 0c-37.664-3.872-72.256-18.368-98.016-43.552-23.808-23.296-53.28-58.016-49.92-102.56 3.36-44.48 37.28-62.496 75.328-74.4-44.576-65.536-79.904-148.192-87.136-254.112-28.416 47.2-55.904 103.2-68.064 169.696 54.816-6.048 82.528 22.688 96.192 60.8-30.24 19.2-61.6 47.776-61.696 98.016-0.064 22.144 6.304 39.936 12.704 58.08-25.92 25.984-62.624 44.48-113.44 40.832-40.256-2.88-73.216-23.776-95.296-48.992-23.392-26.752-36.544-63.392-39.008-105.28l0-19.072c4.8-43.2 28.608-76.992 71.68-80.768 28.736-2.496 52.608 6.272 78.048 14.528 16.384-126.688 80-219.744 138.848-307.648 17.344-25.92 45.472-63.296 75.328-75.328l9.088 0c18.272 3.104 30.336 23.232 22.688 41.76-4.896 11.84-28.032 26.72-37.216 37.216-11.008 12.576-24.288 30.112-30.848 43.552-23.872 48.768-8.64 120.32 5.44 168.8 15.008 51.68 34.912 96.032 64.448 132.48 21.696-21.792 43.296-45.696 83.488-42.656 62.144 4.704 99.84 72.256 99.84 137.952 0 45.408-17.632 78.4-39.936 103.456zM550.112 282.4c132.288 5.376 208.736 74.4 203.264 220.512-62.976 1.088-109.568-21.184-144.288-49.92-34.496-28.544-64.192-67.776-69.888-124.32 30.688 8.64 57.696 20.96 82.592 35.392-14.656-32.832-41.408-61.44-71.68-81.664zM846.88 345.024c-22.688 14.528-46.496 27.936-75.328 36.288-30.624-62.24-77.216-108.512-163.36-115.264 39.04-23.2 102.816-24.896 144.288-6.336 40.832 18.272 70.88 51.808 94.368 84.384l0 0.896zM262.432 713.472c-15.968-16.288-29.056-39.392-30.848-64.416-0.96-13.504 3.808-37.728-16.32-30.848-9.568 3.264-9.344 18.304-8.16 33.568 2.176 28.352 18.208 58.112 35.392 76.224 5.568 5.856 14.112 16.576 21.792 16.32 7.2-0.224 11.84-6.08 11.808-12.704-0.064-7.872-11.2-15.68-13.6-18.144z" p-id="1217" fill="#d4237a"></path></svg>