<?xml version="1.0" standalone="no"?><!DOCTYPE svg PUBLIC "-//W3C//DTD SVG 1.1//EN" "http://www.w3.org/Graphics/SVG/1.1/DTD/svg11.dtd"><svg t="1501697239361" class="icon" style="" viewBox="0 0 1024 1024" version="1.1" xmlns="http://www.w3.org/2000/svg" p-id="1099" xmlns:xlink="http://www.w3.org/1999/xlink" width="200" height="200"><defs><style type="text/css"></style></defs><path d="M881.408 197.696c-101.696-100.544-264.064-102.656-369.344-8.064C406.72 95.04 244.224 97.216 142.656 197.696c-104.768 103.616-104.768 271.552 0 375.232 29.952 29.568 309.504 306.048 309.504 306.048 33.152 32.768 86.72 32.768 119.744 0 0 0 306.176-302.656 309.568-306.048C986.176 469.312 986.176 301.312 881.408 197.696zM841.472 533.376l-309.568 306.048c-10.944 11.008-28.928 11.008-39.872 0L182.592 533.376c-82.688-81.664-82.688-214.528 0-296.192 79.616-78.72 207.616-81.472 291.456-6.208l38.016 34.112 37.952-34.112c83.84-75.264 211.904-72.512 291.52 6.208C924.032 318.848 924.032 451.776 841.472 533.376zM323.008 260.288C322.944 260.288 322.944 260.288 323.008 260.288c-65.728 0.064-119.04 53.312-119.04 118.848 0 7.744 6.272 14.016 14.016 14.016 7.744 0 14.016-6.272 14.016-14.016 0-50.176 40.768-90.816 90.944-90.816 7.744 0 14.016-6.272 14.016-14.016C337.088 266.56 330.752 260.288 323.008 260.288z" p-id="1100" fill="#d4237a"></path></svg>