<?xml version="1.0" standalone="no"?><!DOCTYPE svg PUBLIC "-//W3C//DTD SVG 1.1//EN" "http://www.w3.org/Graphics/SVG/1.1/DTD/svg11.dtd"><svg t="1501706579614" class="icon" style="" viewBox="0 0 1024 1024" version="1.1" xmlns="http://www.w3.org/2000/svg" p-id="507" xmlns:xlink="http://www.w3.org/1999/xlink" width="200" height="200"><defs><style type="text/css"></style></defs><path d="M890.304 189.696c-44.992-44.928-104.768-69.696-168.32-69.696S598.656 144.768 553.728 189.696C536.896 206.528 522.944 225.344 512 245.76 501.056 225.344 487.104 206.528 470.336 189.696c-44.992-44.928-104.768-69.696-168.32-69.696S178.688 144.768 133.696 189.696 64 294.464 64 358.016s24.768 123.328 69.696 168.256l337.28 359.872C481.536 897.536 496.384 904 512 904s30.4-6.464 41.024-17.856l337.344-359.872C935.232 481.344 960 421.568 960 358.016S935.232 234.688 890.304 189.696z" p-id="508" fill="#9194a3"></path></svg>