<?xml version="1.0" standalone="no"?><!DOCTYPE svg PUBLIC "-//W3C//DTD SVG 1.1//EN" "http://www.w3.org/Graphics/SVG/1.1/DTD/svg11.dtd"><svg t="1498086335949" class="icon" style="" viewBox="0 0 1024 1024" version="1.1" xmlns="http://www.w3.org/2000/svg" p-id="1998" xmlns:xlink="http://www.w3.org/1999/xlink" width="200" height="200"><defs><style type="text/css"></style></defs><path d="M824.75008 344.7808H251.86304a15.52384 15.52384 0 0 1 0-31.08864h572.88704a15.54432 15.54432 0 1 1 0 31.08864" fill="#d4237a" p-id="1999"></path><path d="M552.26368 329.25696h-27.83232v-85.0944l98.34496-200.66304 24.9856 12.24704-95.49824 194.8672z" fill="#d4237a" p-id="2000"></path><path d="M286.208 313.69216l80.71168 647.02464c2.49856 20.0704 19.61984 35.16416 39.87456 35.16416h263.04512c20.23424 0 37.35552-15.07328 39.85408-35.16416l80.73216-647.02464h-504.2176z m302.03904 319.7952a28.50816 28.50816 0 1 1-14.27456-55.21408 28.50816 28.50816 0 0 1 14.27456 55.21408m33.09568 90.17344a9.4208 9.4208 0 1 1-4.7104-18.2272 9.4208 9.4208 0 0 1 4.7104 18.2272m11.34592-50.09408a17.12128 17.12128 0 1 1-8.58112-33.1776 17.12128 17.12128 0 0 1 8.58112 33.1776m-124.25216-121.46688c-67.85024 22.60992-133.57056-3.11296-163.45088-18.2272l-23.59296-189.09184h433.88928L737.28 488.63232c-138.62912-27.83232-140.0832 33.91488-228.84352 63.46752" fill="#d4237a" p-id="2001"></path></svg>