<?xml version="1.0" standalone="no"?><!DOCTYPE svg PUBLIC "-//W3C//DTD SVG 1.1//EN" "http://www.w3.org/Graphics/SVG/1.1/DTD/svg11.dtd"><svg t="1498087039864" class="icon" style="" viewBox="0 0 1024 1024" version="1.1" xmlns="http://www.w3.org/2000/svg" p-id="2711" xmlns:xlink="http://www.w3.org/1999/xlink" width="200" height="200"><defs><style type="text/css"></style></defs><path d="M632.104421 504.01588c81.939248-42.268872 138.105263-127.568842 138.105263-226.138466 0.007699-140.549774-113.929624-254.475549-254.46785-254.475549S261.270135 137.327639 261.270135 277.865865c0 98.573474 56.166015 183.881143 138.101414 226.134617C186.217865 556.189835 28.009865 748.397714 28.009865 977.662075c0 11.699008 9.481624 21.203729 21.19988 21.203729 11.725955 0 21.211429-9.504722 21.211429-21.203729 0-245.956331 199.37588-445.328361 445.316812-445.328361 245.940932 0 445.312962 199.387429 445.312962 445.320662 0 11.706707 9.485474 21.211429 21.211429 21.211429 11.733654 0 21.219128-9.504722 21.219128-21.203729C1003.477654 748.397714 845.269654 556.189835 632.104421 504.01588zM303.689143 277.865865c0-117.120962 94.92018-212.056541 212.056541-212.056541 117.136361 0 212.056541 94.935579 212.056541 212.056541 0 117.113263-94.92018 212.064241-212.056541 212.064241C398.605474 489.930105 303.689143 394.979128 303.689143 277.865865z" p-id="2712"></path></svg>