<?xml version="1.0" standalone="no"?><!DOCTYPE svg PUBLIC "-//W3C//DTD SVG 1.1//EN" "http://www.w3.org/Graphics/SVG/1.1/DTD/svg11.dtd"><svg t="1495736762708" class="icon" style="" viewBox="0 0 1024 1024" version="1.1" xmlns="http://www.w3.org/2000/svg" p-id="996" xmlns:xlink="http://www.w3.org/1999/xlink" width="200" height="200"><defs><style type="text/css"></style></defs><path d="M821.568 795.008c0 0 0 68.608-68.608 68.608s-424.064 0-480.192 0c-68.608 0-68.608-68.608-68.608-68.608s-36.48-263.04 193.792-328.384c-34.56-37.632-56.576-91.392-56.576-151.808 0-113.664 76.8-205.824 171.52-205.824 94.72 0 171.52 92.096 171.52 205.824 0 60.352-22.08 114.176-56.576 151.808C857.984 531.968 821.568 795.008 821.568 795.008zM512.832 177.6c0 0-102.912 0-102.912 137.216 0 137.216 102.912 137.216 102.912 137.216s102.912 0 102.912-137.216C615.744 177.6 512.832 177.6 512.832 177.6zM512.832 520.576c-274.432 0-240.064 274.432-240.064 274.432l480.192 0C752.96 795.008 787.264 520.576 512.832 520.576z" p-id="997" fill="#d4237a"></path></svg>